<?xml version="1.0" encoding="UTF-8" standalone="no"?>
<!-- Created with Inkscape (http://www.inkscape.org/) -->

<svg
   width="116.01999mm"
   height="76.391647mm"
   viewBox="0 0 116.01999 76.391647"
   version="1.1"
   id="svg14"
   xmlns="http://www.w3.org/2000/svg"
   xmlns:svg="http://www.w3.org/2000/svg">
  <defs
     id="defs11" />
  <g
     id="layer1"
     transform="translate(-39.936913,-44.698817)">
    <path
       style="fill:#ffffff;stroke:#ffffff;stroke-width:10;stroke-linecap:round;stroke-linejoin:bevel;stroke-dasharray:none;stroke-opacity:1"
       id="path8938"
       d="m 75.814413,60.620842 c -0.82882,1.435558 -31.486306,0.765427 -33.143945,0.765427 -1.657639,0 -32.315127,0.67013 -33.1439463,-0.765427 C 8.6977021,59.185284 24.606796,32.970188 25.435615,31.53463 26.264435,30.099073 41.012828,3.2138443 42.670468,3.2138443 c 1.657639,0 16.406031,26.8852277 17.234851,28.3207847 0.828819,1.435558 16.737913,27.650655 15.909094,29.086213 z"
       transform="rotate(90,33.127621,73.351791)" />
    <path
       style="fill:#ffffff;stroke:#ffffff;stroke-width:10;stroke-linecap:round;stroke-linejoin:bevel;stroke-dasharray:none;stroke-opacity:1"
       id="path8938-8"
       d="m 75.814413,60.620842 c -0.82882,1.435558 -31.486306,0.765427 -33.143945,0.765427 -1.657639,0 -32.315127,0.67013 -33.1439463,-0.765427 C 8.6977021,59.185284 24.606796,32.970188 25.435615,31.53463 26.264435,30.099073 41.012828,3.2138443 42.670468,3.2138443 c 1.657639,0 16.406031,26.8852277 17.234851,28.3207847 0.828819,1.435558 16.737913,27.650655 15.909094,29.086213 z"
       transform="rotate(90,56.973288,97.197458)" />
  </g>
</svg>
