<?xml version="1.0" encoding="UTF-8" standalone="no"?>
<svg
   version="1.1"
   width="256"
   height="256"
   viewBox="0 0 256 256"
   xml:space="preserve"
   id="svg8"
   sodipodi:docname="like-icon-active.svg"
   inkscape:version="1.2.1 (9c6d41e410, 2022-07-14)"
   xmlns:inkscape="http://www.inkscape.org/namespaces/inkscape"
   xmlns:sodipodi="http://sodipodi.sourceforge.net/DTD/sodipodi-0.dtd"
   xmlns="http://www.w3.org/2000/svg"
   xmlns:svg="http://www.w3.org/2000/svg"><sodipodi:namedview
   id="namedview10"
   pagecolor="#ffffff"
   bordercolor="#000000"
   borderopacity="0.25"
   inkscape:showpageshadow="2"
   inkscape:pageopacity="0.0"
   inkscape:pagecheckerboard="0"
   inkscape:deskcolor="#d1d1d1"
   showgrid="false"
   inkscape:zoom="3.03125"
   inkscape:cx="66.969072"
   inkscape:cy="127.01031"
   inkscape:window-width="1920"
   inkscape:window-height="974"
   inkscape:window-x="-11"
   inkscape:window-y="-11"
   inkscape:window-maximized="1"
   inkscape:current-layer="svg8" />

<defs
   id="defs2">
</defs>
<g
   style="stroke:none;stroke-width:0;stroke-dasharray:none;stroke-linecap:butt;stroke-linejoin:miter;stroke-miterlimit:10;fill:#008000;fill-rule:nonzero;opacity:1;fill-opacity:1;stroke-opacity:1"
   transform="translate(1.4065934065934016 1.4065934065934016) scale(2.81 2.81)"
   id="g6">
	<path
   d="M 45 84.334 L 6.802 46.136 C 2.416 41.75 0 35.918 0 29.716 c 0 -6.203 2.416 -12.034 6.802 -16.42 c 4.386 -4.386 10.217 -6.802 16.42 -6.802 c 6.203 0 12.034 2.416 16.42 6.802 L 45 18.654 l 5.358 -5.358 c 4.386 -4.386 10.218 -6.802 16.42 -6.802 c 6.203 0 12.034 2.416 16.42 6.802 l 0 0 l 0 0 C 87.585 17.682 90 23.513 90 29.716 c 0 6.203 -2.415 12.034 -6.802 16.42 L 45 84.334 z M 23.222 10.494 c -5.134 0 -9.961 2 -13.592 5.63 S 4 24.582 4 29.716 s 2 9.961 5.63 13.592 L 45 78.678 l 35.37 -35.37 C 84.001 39.677 86 34.85 86 29.716 s -1.999 -9.961 -5.63 -13.592 l 0 0 c -3.631 -3.63 -8.457 -5.63 -13.592 -5.63 c -5.134 0 -9.961 2 -13.592 5.63 L 45 24.311 l -8.187 -8.187 C 33.183 12.494 28.356 10.494 23.222 10.494 z"
   style="stroke:none;stroke-width:1;stroke-dasharray:none;stroke-linecap:butt;stroke-linejoin:miter;stroke-miterlimit:10;fill:#008000;fill-rule:nonzero;opacity:1;fill-opacity:1;stroke-opacity:1"
   transform=" matrix(1 0 0 1 0 0) "
   stroke-linecap="round"
   id="path4" />
</g>
<path
   style="fill:#008000;fill-opacity:1;fill-rule:nonzero;stroke:none;stroke-width:0.329897;stroke-opacity:1"
   d="M 76.501493,170.80619 C 23.310719,117.55854 23.493341,117.74988 19.837596,111.43575 12.979035,99.589783 11.104569,84.733602 14.7139,70.827626 15.772009,66.750958 18.067179,61.305838 20.240401,57.716411 28.770708,43.627234 42.012692,34.52603 57.903139,31.830845 c 3.677559,-0.623752 5.121158,-0.703727 10.220572,-0.566217 8.829602,0.238097 15.492817,1.895387 22.943707,5.706611 6.586655,3.369156 8.33249,4.842461 22.924422,19.345863 7.44602,7.400852 13.67696,13.456094 13.84652,13.456094 0.16957,0 6.25056,-5.918694 13.51332,-13.152649 7.53105,-7.501178 14.26815,-13.924305 15.67925,-14.94852 7.22549,-5.244487 14.63004,-8.376779 23.26396,-9.841182 5.56544,-0.943957 14.27641,-0.811096 19.4229,0.296243 19.0548,4.099904 34.35192,17.664726 40.40758,35.831675 2.04332,6.129963 2.48961,9.175555 2.48961,16.989691 0,6.141288 -0.1006,7.557466 -0.74996,10.556701 -1.95446,9.027255 -5.82202,17.047515 -11.45407,23.752575 -1.14305,1.36083 -24.69135,25.07722 -52.32955,52.7031 l -50.25129,50.22887 z"
   id="path769" /><path
   style="fill:#008000;fill-opacity:1;fill-rule:nonzero;stroke:none;stroke-width:1.33;stroke-opacity:1;stroke-dasharray:none"
   d="M 79.47965,173.45378 C 52.896188,146.82121 29.463171,123.17526 27.406277,120.90722 25.349382,118.63918 22.950308,115.76775 22.075001,114.52627 18.482875,109.43143 15.195957,101.46564 13.954076,94.845361 13.044516,89.996632 13.133233,78.700975 14.1164,74.178059 17.663721,57.859112 28.074153,44.367417 42.721649,37.10627 c 5.310668,-2.632636 8.239219,-3.64024 14.020619,-4.823965 3.878189,-0.794048 4.536191,-0.834021 11.051546,-0.671363 9.799199,0.244639 14.750737,1.412037 22.653223,5.340828 6.831808,3.396495 8.291906,4.626962 24.951803,21.027611 6.58914,6.486598 12.18147,11.793815 12.4274,11.793815 0.24594,0 6.43513,-5.880453 13.75376,-13.067674 7.31863,-7.187221 14.56534,-14.013785 16.1038,-15.170143 5.39714,-4.056678 12.93893,-7.406598 20.46885,-9.091876 3.0771,-0.688689 4.28667,-0.7734 11.04323,-0.7734 8.29892,0 10.23195,0.260849 16.08505,2.170568 3.55819,1.160949 9.01467,3.703786 12.09922,5.638496 12.32883,7.732973 21.31652,20.633179 24.32391,34.912586 0.85911,4.079109 0.86444,17.162728 0.009,20.948453 -1.54099,6.815934 -4.4716,13.814374 -8.02283,19.158864 -2.83757,4.27047 -7.94243,9.50691 -59.40297,60.93409 l -46.47359,46.44347 z"
   id="path771" /><path
   style="fill:#008000;fill-opacity:1;fill-rule:nonzero;stroke:none;stroke-width:0.447888;stroke-dasharray:none;stroke-opacity:1"
   d="M 77.643396,173.5874 C 50.053426,145.93605 25.94653,121.5695 24.072512,119.4395 c -5.152397,-5.85617 -7.993673,-10.64545 -10.376133,-17.49008 -2.253205,-6.473289 -2.68385,-9.332357 -2.691584,-17.869509 -0.006,-6.653072 0.08699,-8.008246 0.762814,-11.113013 4.437812,-20.387635 19.768637,-36.543209 39.622026,-41.753564 5.992611,-1.572711 8.225802,-1.800551 15.574599,-1.588994 9.571453,0.275544 14.833133,1.537404 22.679031,5.438902 6.988574,3.475181 8.265224,4.546974 25.130525,21.097995 6.96508,6.835293 12.84711,12.427806 13.07119,12.427806 0.22407,0 5.31726,-4.811429 11.31819,-10.692066 16.04015,-15.718597 17.94268,-17.484228 20.95392,-19.446103 6.99655,-4.558361 14.6077,-7.444087 22.69584,-8.604991 3.75163,-0.538479 15.25678,-0.236616 18.43402,0.483656 4.50597,1.021496 9.08686,2.691231 13.6226,4.965439 14.73686,7.389024 25.63187,21.473262 29.14154,37.67192 0.84746,3.911396 1.06611,15.745436 0.36926,19.984835 -1.10525,6.72385 -4.6471,15.596327 -8.55731,21.436407 -0.93008,1.38912 -3.10433,4.05795 -4.83164,5.93073 -1.72732,1.87277 -25.65044,25.93625 -53.1625,53.47438 l -50.02193,50.06933 z"
   id="path773" /></svg>
